<?xml version="1.0" encoding="UTF-8"?>
<!DOCTYPE svg PUBLIC "-//W3C//DTD SVG 1.1//EN" "http://www.w3.org/Graphics/SVG/1.1/DTD/svg11.dtd">
<!-- Creator: CorelDRAW X7 -->
<svg xmlns="http://www.w3.org/2000/svg" xml:space="preserve" width="6.58616in" height="2.78919in" version="1.1" style="shape-rendering:geometricPrecision; text-rendering:geometricPrecision; image-rendering:optimizeQuality; fill-rule:evenodd; clip-rule:evenodd"
viewBox="0 0 6075 2573"
 xmlns:xlink="http://www.w3.org/1999/xlink">
 <defs>
  <style type="text/css">
   <![CDATA[
    .fil0 {fill:#ED3237}
    .fil1 {fill:#4E5A62;fill-rule:nonzero}
    .fil2 {fill:#201E1E;fill-rule:nonzero}
   ]]>
  </style>
 </defs>
 <g id="Layer_x0020_1">
  <metadata id="CorelCorpID_0Corel-Layer"/>
  <g id="_2139273593520">
   <path class="fil0" d="M2178 0l1186 0c-387,166 -652,508 -652,902 0,328 182,619 466,804 -252,-180 -411,-444 -411,-739 0,-490 440,-896 1013,-967l118 0 0 1720 -1720 0 0 -1720z"/>
   <path class="fil1" d="M0 2445l24 0 0 4c0,13 1,22 3,28 2,6 5,10 10,13 3,2 8,3 16,4 7,1 22,1 45,1 12,0 22,-1 28,-2 7,-2 12,-5 15,-8 2,-2 4,-5 5,-10 0,-4 1,-11 1,-18 0,-16 -2,-26 -5,-30 -3,-4 -10,-7 -19,-7l-67 -6c-20,-1 -34,-6 -41,-14 -8,-9 -12,-23 -12,-42 0,-13 1,-23 4,-30 2,-8 6,-14 12,-19 4,-4 11,-6 18,-8 8,-1 22,-2 42,-2l8 0c22,0 37,1 46,3 10,2 17,6 23,11 4,3 7,8 9,14 2,7 3,15 3,24 0,3 0,5 0,6 0,2 0,3 0,4l-24 0 0 -5c0,-8 0,-14 -1,-18 -1,-4 -3,-7 -5,-9 -3,-3 -8,-5 -16,-6 -8,-1 -22,-2 -44,-2 -22,0 -36,2 -42,7 -5,5 -8,15 -8,30 0,12 2,21 5,25 4,5 11,8 22,9l68 5c18,2 30,7 37,15 8,8 11,21 11,41 0,13 -1,24 -3,31 -1,7 -4,13 -9,17 -5,6 -12,10 -21,13 -9,2 -25,3 -48,3l-11 0c-20,0 -34,-1 -42,-3 -9,-2 -16,-5 -21,-10 -6,-5 -10,-11 -12,-19 -3,-8 -4,-18 -4,-30l0 -10zm338 -81l22 0 46 129 45 -129 22 0 -57 163c-6,18 -13,30 -19,36 -7,7 -16,10 -27,10 -1,0 -3,0 -5,0 -2,0 -4,-1 -7,-1l0 -20c1,0 2,0 3,1 1,0 2,0 4,0 7,0 13,-2 16,-5 4,-3 8,-9 11,-18l6 -16 -7 0 -53 -150zm301 150l0 -150 21 0 0 20c4,-7 10,-13 18,-17 8,-3 19,-5 32,-5 20,0 34,4 42,12 8,8 13,22 13,42l0 98 -23 0 0 -94c0,-15 -2,-26 -7,-31 -5,-5 -14,-7 -28,-7 -16,0 -27,3 -35,11 -7,7 -11,18 -11,34l0 87 -22 0zm327 -90l87 0 0 -6c0,-14 -3,-23 -8,-28 -5,-5 -15,-8 -30,-8l-11 0c-15,0 -25,3 -30,8 -5,5 -8,14 -8,28l0 6zm39 92c-23,0 -39,-4 -48,-13 -10,-9 -14,-24 -14,-46l0 -36c0,-22 4,-37 14,-46 9,-9 24,-13 47,-13l11 0c23,0 39,4 48,13 9,9 13,24 13,46l0 23 -110 0c0,2 0,3 0,5 0,2 0,5 0,8 0,15 3,26 8,31 5,5 15,8 30,8l11 0c13,0 23,-2 28,-6 6,-4 9,-10 10,-20l23 0c-1,16 -6,28 -16,35 -9,8 -24,11 -45,11l-10 0zm251 -2l0 -150 22 0 0 20c3,-8 8,-13 15,-17 7,-4 16,-5 27,-5 17,0 28,4 35,12 7,7 10,21 10,42l0 1 -23 0 0 -5c0,-12 -2,-20 -5,-24 -4,-4 -12,-6 -22,-6 -13,0 -22,3 -28,10 -5,7 -8,19 -8,35l0 87 -23 0zm384 -63l0 -24c0,-16 -4,-27 -11,-35 -8,-7 -20,-10 -36,-10 -15,0 -25,2 -30,8 -5,5 -7,17 -7,36l0 26c0,19 2,31 7,36 5,5 15,8 30,8 16,0 28,-3 36,-11 7,-7 11,-18 11,-34zm22 -87l0 149c0,22 -4,37 -13,46 -9,9 -24,13 -46,13l-11 0c-20,0 -34,-4 -44,-11 -9,-7 -14,-19 -15,-35l23 0c1,9 4,16 9,20 5,4 14,5 27,5l11 0c13,0 23,-2 28,-6 6,-4 9,-11 9,-21l0 -31c-4,8 -10,14 -18,18 -7,3 -17,5 -30,5 -22,0 -37,-4 -46,-13 -9,-9 -13,-24 -13,-46l0 -36c0,-22 4,-37 13,-46 9,-9 24,-13 46,-13 13,0 24,2 31,6 8,4 14,10 18,19l0 -23 21 0zm186 -38l0 -25 23 0 0 25 -23 0zm0 188l0 -150 23 0 0 150 -23 0zm203 0l0 -24 94 -106 -90 0 0 -20 118 0 0 21 -98 109 98 0 0 20 -122 0zm299 -188l0 -25 22 0 0 25 -22 0zm0 188l0 -150 22 0 0 150 -22 0zm208 0l0 -150 22 0 0 20c4,-7 10,-13 18,-17 8,-3 19,-5 32,-5 20,0 34,4 42,12 8,8 12,22 12,42l0 98 -23 0 0 -94c0,-15 -2,-26 -7,-31 -4,-5 -13,-7 -27,-7 -16,0 -28,3 -35,11 -7,7 -11,18 -11,34l0 87 -23 0zm416 -63l0 -24c0,-16 -4,-27 -11,-35 -7,-7 -19,-10 -36,-10 -15,0 -24,2 -29,8 -5,5 -8,17 -8,36l0 26c0,19 3,31 8,36 5,5 14,8 29,8 17,0 29,-3 36,-11 7,-7 11,-18 11,-34zm23 -87l0 149c0,22 -5,37 -14,46 -8,9 -24,13 -46,13l-11 0c-20,0 -34,-4 -43,-11 -9,-7 -15,-19 -16,-35l23 0c1,9 4,16 9,20 5,4 14,5 28,5l10 0c13,0 23,-2 29,-6 5,-4 8,-11 8,-21l0 -31c-4,8 -10,14 -17,18 -8,3 -18,5 -31,5 -21,0 -37,-4 -46,-13 -9,-9 -13,-24 -13,-46l0 -36c0,-22 4,-37 13,-46 9,-9 25,-13 46,-13 14,0 24,2 32,6 8,4 13,10 17,19l0 -23 22 0zm483 8c0,-28 5,-47 16,-57 11,-11 29,-16 56,-16l25 0c27,0 46,4 57,14 10,9 16,24 16,46l0 10 -25 0 0 -6c0,-16 -3,-27 -10,-33 -7,-6 -20,-9 -39,-9l-17 0c-13,0 -23,1 -29,2 -6,2 -10,5 -14,8 -4,4 -7,9 -9,14 -1,6 -2,17 -2,33l0 60c0,16 1,26 2,32 2,6 5,11 9,14 4,4 8,7 14,8 6,2 15,3 29,3l17 0c20,0 33,-3 40,-10 6,-6 9,-18 9,-35 0,-3 0,-5 0,-6 0,-2 0,-3 0,-4l25 0 0 14c0,23 -6,40 -16,49 -10,9 -29,14 -57,14l-25 0c-27,0 -45,-5 -56,-16 -11,-11 -16,-30 -16,-57l0 -72zm347 142l0 -213 21 0 0 83c4,-7 10,-13 18,-17 8,-3 19,-5 32,-5 20,0 34,4 42,12 8,8 12,22 12,42l0 98 -22 0 0 -94c0,-15 -3,-26 -7,-31 -5,-5 -14,-7 -28,-7 -16,0 -27,3 -35,11 -7,7 -11,18 -11,34l0 87 -22 0zm327 -90l87 0 0 -6c0,-14 -3,-23 -8,-28 -5,-5 -15,-8 -30,-8l-11 0c-15,0 -25,3 -30,8 -5,5 -8,14 -8,28l0 6zm38 92c-22,0 -38,-4 -48,-13 -9,-9 -13,-24 -13,-46l0 -36c0,-22 4,-37 13,-46 9,-9 25,-13 48,-13l11 0c23,0 39,4 48,13 9,9 13,24 13,46l0 23 -110 0c0,2 0,3 0,5 0,2 0,5 0,8 0,15 3,26 8,31 5,5 15,8 30,8l11 0c13,0 23,-2 28,-6 6,-4 9,-10 9,-20l24 0c-1,16 -6,28 -16,35 -9,8 -24,11 -45,11l-11 0zm255 -2l0 -150 22 0 0 20c4,-7 9,-13 17,-17 7,-3 17,-5 29,-5 13,0 23,2 31,6 7,3 12,10 16,19 5,-9 10,-16 18,-19 7,-4 17,-6 28,-6 20,0 34,4 42,11 8,8 12,22 12,43l0 98 -23 0 0 -91c0,-17 -2,-28 -7,-33 -4,-6 -13,-8 -25,-8 -14,0 -25,3 -31,10 -7,8 -10,19 -10,35l0 87 -22 0 0 -102c0,-12 -2,-20 -6,-24 -5,-4 -13,-6 -26,-6 -14,0 -25,3 -32,11 -7,7 -10,18 -10,34l0 87 -23 0zm399 -188l0 -25 23 0 0 25 -23 0zm0 188l0 -150 23 0 0 150 -23 0zm203 -45l23 0 0 4c0,9 3,16 9,19 6,3 17,5 35,5 20,0 32,-2 36,-5 5,-4 7,-10 7,-21 0,-9 -2,-16 -6,-19 -3,-3 -13,-5 -28,-6 -5,-1 -13,-1 -22,-1 -20,-1 -33,-2 -37,-4 -5,-3 -10,-8 -12,-13 -2,-6 -4,-13 -4,-24 0,-16 5,-28 13,-33 9,-6 28,-9 57,-9 23,0 38,3 46,8 9,6 13,16 13,30l-23 0 0 -2c0,-6 -3,-11 -9,-13 -6,-3 -17,-4 -35,-4 -17,0 -27,1 -32,4 -5,3 -7,10 -7,19 0,6 0,10 1,13 1,2 3,4 5,5 5,3 15,4 30,4 4,1 7,1 9,1 13,0 23,1 30,2 8,0 13,2 16,3 7,3 12,7 14,13 3,6 5,14 5,25 0,11 -2,19 -5,25 -2,6 -7,11 -15,15 -3,2 -8,4 -16,5 -7,1 -18,1 -31,1 -27,0 -45,-3 -54,-9 -8,-6 -13,-17 -13,-34l0 -4zm303 -86l0 -19 19 0 0 -34 22 0 0 34 75 0 0 19 -75 0 0 83c0,11 2,20 6,24 4,4 12,6 23,6 11,0 18,-2 22,-6 4,-4 6,-12 6,-24l0 -5 23 0 0 2c0,21 -4,35 -11,42 -7,8 -22,11 -44,11 -18,0 -30,-4 -37,-11 -7,-8 -10,-22 -10,-42l0 -80 -19 0zm301 131l0 -150 22 0 0 20c3,-8 8,-13 15,-17 7,-4 15,-5 27,-5 16,0 28,4 35,12 7,7 10,21 10,42l0 1 -23 0 0 -5c0,-12 -2,-20 -6,-24 -4,-4 -11,-6 -22,-6 -12,0 -21,3 -27,10 -6,7 -8,19 -8,35l0 87 -23 0zm256 -150l23 0 46 129 45 -129 22 0 -58 163c-6,18 -12,30 -19,36 -6,7 -15,10 -26,10 -2,0 -4,0 -6,0 -2,0 -4,-1 -6,-1l0 -20c1,0 2,0 3,1 1,0 2,0 4,0 7,0 12,-2 16,-5 4,-3 8,-9 11,-18l6 -16 -7 0 -54 -150z"/>
   <path class="fil2" d="M200 1910l-149 0 0 133 149 0c39,0 65,-3 77,-10 12,-7 18,-19 18,-37l0 -39c0,-18 -6,-30 -18,-37 -11,-7 -37,-10 -77,-10zm-200 297l0 -332 211 0c52,0 88,5 108,16 20,11 30,31 30,60l0 50c0,17 -5,31 -15,41 -10,10 -25,16 -46,19 23,3 38,10 47,20 9,10 14,25 14,47l0 79 -54 0 0 -68c0,-24 -6,-40 -16,-48 -11,-9 -31,-13 -62,-13l-166 0 0 129 -51 0zm449 0l0 -332 327 0 0 35 -276 0 0 109 268 0 0 34 -268 0 0 120 276 0 0 34 -327 0zm395 -222c0,-43 12,-73 35,-89 23,-17 63,-25 121,-25l55 0c57,0 97,7 121,21 23,15 34,39 34,73l0 15 -53 0 0 -9c0,-25 -7,-43 -22,-52 -14,-9 -42,-14 -84,-14l-36 0c-29,0 -49,2 -62,4 -13,3 -24,7 -32,12 -9,6 -15,14 -18,23 -4,9 -5,26 -5,50l0 95c0,24 1,40 5,49 3,10 9,17 18,23 8,5 19,10 31,12 12,3 33,4 63,4l36 0c43,0 71,-5 86,-15 14,-9 21,-28 21,-55 0,-5 0,-8 0,-10 0,-2 0,-4 -1,-6l53 0 0 22c0,37 -11,62 -33,77 -23,14 -64,22 -122,22l-55 0c-58,0 -98,-9 -121,-26 -23,-16 -35,-46 -35,-89l0 -112zm507 104l202 0 -93 -179 -16 0 -93 179zm-114 118l173 -332 84 0 174 332 -53 0 -45 -85 -236 0 -44 85 -53 0zm467 0l0 -39 300 -260 -286 0 0 -33 341 0 0 39 -298 259 298 0 0 34 -355 0zm646 -222c0,-43 11,-73 34,-89 23,-17 63,-25 121,-25l55 0c57,0 98,7 121,21 23,15 35,39 35,73l0 15 -54 0 0 -9c0,-25 -7,-43 -21,-52 -15,-9 -43,-14 -85,-14l-36 0c-28,0 -49,2 -62,4 -12,3 -23,7 -32,12 -8,6 -14,14 -18,23 -3,9 -5,26 -5,50l0 95c0,24 2,40 5,49 4,10 10,17 18,23 9,5 19,10 32,12 12,3 33,4 62,4l36 0c43,0 72,-5 86,-15 14,-9 21,-28 21,-55 0,-5 0,-8 0,-10 0,-2 0,-4 0,-6l53 0 0 22c0,37 -12,62 -34,77 -22,14 -63,22 -122,22l-55 0c-58,0 -98,-9 -121,-26 -23,-16 -34,-46 -34,-89l0 -112zm453 222l0 -332 51 0 0 143 269 0 0 -143 52 0 0 332 -52 0 0 -154 -269 0 0 154 -51 0zm485 0l0 -332 327 0 0 35 -276 0 0 109 268 0 0 34 -268 0 0 120 276 0 0 34 -327 0zm410 0l0 -332 85 0 160 296 158 -296 85 0 0 332 -51 0 0 -301 -161 301 -64 0 -161 -301 0 301 -51 0zm601 0l0 -332 52 0 0 332 -52 0zm151 -222c0,-43 11,-73 34,-89 23,-17 63,-25 121,-25l55 0c57,0 97,7 121,21 23,15 34,39 34,73l0 15 -53 0 0 -9c0,-25 -7,-43 -21,-52 -15,-9 -43,-14 -85,-14l-36 0c-28,0 -49,2 -62,4 -13,3 -23,7 -32,12 -8,6 -14,14 -18,23 -3,9 -5,26 -5,50l0 95c0,24 2,40 5,49 4,10 10,17 18,23 9,5 19,10 31,12 13,3 33,4 63,4l36 0c43,0 72,-5 86,-15 14,-9 21,-28 21,-55 0,-5 0,-8 0,-10 0,-2 0,-4 0,-6l52 0 0 22c0,37 -11,62 -33,77 -23,14 -63,22 -122,22l-55 0c-58,0 -98,-9 -121,-26 -23,-16 -34,-46 -34,-89l0 -112zm506 104l203 0 -94 -179 -16 0 -93 179zm-114 118l173 -332 85 0 173 332 -53 0 -45 -85 -236 0 -44 85 -53 0zm494 0l0 -332 50 0 0 298 265 0 0 34 -315 0zm370 -108l52 0 0 6c0,20 2,35 7,44 4,9 11,16 20,20 8,3 19,5 35,6 16,2 48,2 97,2 26,0 47,-1 62,-3 14,-3 25,-7 32,-12 4,-3 7,-8 9,-16 2,-7 3,-16 3,-29 0,-24 -4,-40 -11,-46 -7,-7 -21,-10 -41,-11l-144 -9c-43,-2 -73,-10 -90,-23 -16,-13 -24,-34 -24,-65 0,-19 2,-35 8,-47 5,-12 14,-21 26,-29 10,-6 23,-10 40,-13 17,-2 47,-3 89,-3l17 0c48,0 82,1 101,5 20,3 36,8 49,16 9,6 16,14 20,23 4,10 7,23 7,38 0,4 -1,7 -1,9 0,3 0,5 0,7l-52 0 0 -9c0,-12 -1,-21 -3,-28 -2,-6 -5,-11 -10,-14 -6,-5 -18,-8 -34,-10 -17,-2 -48,-3 -95,-3 -48,0 -78,4 -91,12 -12,8 -18,23 -18,46 0,19 4,33 12,40 8,7 24,11 47,13l146 8c39,3 66,10 81,23 16,13 23,34 23,64 0,22 -2,38 -6,49 -4,11 -10,20 -19,27 -12,10 -27,16 -46,20 -19,3 -54,5 -104,5l-24 0c-43,0 -73,-2 -91,-5 -18,-3 -33,-8 -45,-16 -11,-7 -20,-17 -25,-29 -6,-12 -9,-28 -9,-47l0 -16z"/>
  </g>
 </g>
</svg>
